<svg width="47" height="43" viewBox="0 0 47 43" fill="none" xmlns="http://www.w3.org/2000/svg">
<path fill-rule="evenodd" clip-rule="evenodd" d="M34.9778 21.1398C34.9778 15.5398 29.834 11 23.4889 11C17.1438 11 12 15.5398 12 21.1398C12 26.7399 17.1438 31.2796 23.4889 31.2796C24.8738 31.2796 26.7762 30.8338 29.1962 29.942L33.1095 31.2892L33.2256 31.3225C33.7314 31.4395 34.2675 31.2059 34.4621 30.7655C34.54 30.5893 34.5546 30.3964 34.504 30.2127L33.4128 26.2521L33.5915 25.8748C34.5157 23.888 34.9778 22.3097 34.9778 21.1398ZM32.1279 25.3805L31.7677 26.1331L32.7447 29.6795L29.1763 28.4509L28.2018 28.8077C26.1465 29.5396 24.5589 29.8969 23.4889 29.8969C18.009 29.8969 13.5667 25.9762 13.5667 21.1398C13.5667 16.3034 18.009 12.3827 23.4889 12.3827C28.9688 12.3827 33.4111 16.3034 33.4111 21.1398C33.4111 22.1036 32.9902 23.5321 32.1279 25.3805Z" fill="#262626"/>
</svg>
