<svg width="29" height="26" viewBox="0 0 29 26" fill="none" xmlns="http://www.w3.org/2000/svg">
<g clip-path="url(#clip0_165_453)">
<path fill-rule="evenodd" clip-rule="evenodd" d="M12.828 15.9845C12.7342 15.8908 12.6071 15.8381 12.4745 15.8381C12.3419 15.8381 12.2148 15.8908 12.121 15.9845L8.02499 20.0805V17.3125C8.02499 17.1799 7.97232 17.0527 7.87855 16.959C7.78478 16.8652 7.6576 16.8125 7.52499 16.8125C7.39239 16.8125 7.26521 16.8652 7.17144 16.959C7.07767 17.0527 7.02499 17.1799 7.02499 17.3125V21.2875C7.02499 21.4201 7.07767 21.5473 7.17144 21.6411C7.26521 21.7348 7.39239 21.7875 7.52499 21.7875H11.5C11.6326 21.7875 11.7598 21.7348 11.8535 21.6411C11.9473 21.5473 12 21.4201 12 21.2875C12 21.1549 11.9473 21.0277 11.8535 20.934C11.7598 20.8402 11.6326 20.7875 11.5 20.7875H8.73199L12.828 16.6915C12.9217 16.5978 12.9744 16.4706 12.9744 16.338C12.9744 16.2054 12.9217 16.0783 12.828 15.9845ZM17.172 11.6405C17.2658 11.7343 17.3929 11.7869 17.5255 11.7869C17.6581 11.7869 17.7852 11.7343 17.879 11.6405L21.975 7.54452V10.3125C21.975 10.4451 22.0277 10.5723 22.1214 10.6661C22.2152 10.7598 22.3424 10.8125 22.475 10.8125C22.6076 10.8125 22.7348 10.7598 22.8285 10.6661C22.9223 10.5723 22.975 10.4451 22.975 10.3125V6.33752C22.975 6.20492 22.9223 6.07774 22.8285 5.98397C22.7348 5.8902 22.6076 5.83752 22.475 5.83752H18.5C18.3674 5.83752 18.2402 5.8902 18.1464 5.98397C18.0527 6.07774 18 6.20492 18 6.33752C18 6.47013 18.0527 6.59731 18.1464 6.69108C18.2402 6.78485 18.3674 6.83752 18.5 6.83752H21.268L17.172 10.9335C17.0783 11.0273 17.0256 11.1544 17.0256 11.287C17.0256 11.4196 17.0783 11.5468 17.172 11.6405Z" fill="white"/>
</g>
<defs>
<clipPath id="clip0_165_453">
<rect width="16" height="16" fill="white" transform="translate(7 5.8125)"/>
</clipPath>
</defs>
</svg>
