<svg width="58" height="10" viewBox="0 0 58 10" fill="none" xmlns="http://www.w3.org/2000/svg">
<path d="M2.028 9C1.74 9 1.52 8.956 1.368 8.868C1.216 8.772 1.108 8.616 1.044 8.4C0.98 8.176 0.948 7.856 0.948 7.44V1.08H2.508V7.44C2.508 7.848 2.564 8.152 2.676 8.352C2.788 8.544 3.012 8.64 3.348 8.64H3.468V9H2.028ZM5.42053 3.06V9H4.82053V2.52C4.82053 2.184 4.73653 1.92 4.56853 1.728C4.40853 1.536 4.13253 1.44 3.74053 1.44H3.68053V1.08H4.52053C4.96853 1.08 5.33253 1.14 5.61253 1.26C5.90053 1.372 6.14053 1.552 6.33253 1.8L10.4605 6.6V1.08H11.0605V9.036H10.5085L5.42053 3.06ZM15.2291 9.204C14.7811 9.204 14.3491 9.144 13.9331 9.024C13.5171 8.912 13.1771 8.748 12.9131 8.532C12.6491 8.308 12.5171 8.052 12.5171 7.764V6.36H12.8531C12.9731 7.176 13.2251 7.764 13.6091 8.124C13.9931 8.484 14.5291 8.664 15.2171 8.664C15.6811 8.664 16.0491 8.564 16.3211 8.364C16.5931 8.164 16.7291 7.876 16.7291 7.5C16.7291 7.18 16.6291 6.908 16.4291 6.684C16.2291 6.46 15.9171 6.216 15.4931 5.952L14.0171 5.064C13.4811 4.752 13.0971 4.428 12.8651 4.092C12.6411 3.756 12.5291 3.364 12.5291 2.916C12.5291 2.284 12.7691 1.784 13.2491 1.416C13.7371 1.048 14.3931 0.864 15.2171 0.864C15.6651 0.864 16.0971 0.924 16.5131 1.044C16.9291 1.156 17.2691 1.324 17.5331 1.548C17.7971 1.764 17.9291 2.016 17.9291 2.304V3.708H17.5931C17.4571 2.892 17.2051 2.304 16.8371 1.944C16.4691 1.584 15.9731 1.404 15.3491 1.404C14.9171 1.404 14.5731 1.508 14.3171 1.716C14.0691 1.924 13.9451 2.208 13.9451 2.568C13.9451 2.88 14.0411 3.14 14.2331 3.348C14.4331 3.548 14.7531 3.776 15.1931 4.032L16.6691 4.908C17.2291 5.236 17.6291 5.556 17.8691 5.868C18.1171 6.172 18.2411 6.54 18.2411 6.972C18.2411 7.668 17.9771 8.216 17.4491 8.616C16.9291 9.008 16.1891 9.204 15.2291 9.204ZM21.4637 1.62H20.6117C20.1637 1.62 19.8197 1.732 19.5797 1.956C19.3477 2.18 19.2317 2.548 19.2317 3.06H18.8717V2.04C18.8717 1.4 19.2117 1.08 19.8917 1.08H25.5317V1.62H23.0237V9H21.4637V1.62ZM32.286 9.048C31.782 9.048 31.326 8.944 30.918 8.736C30.51 8.52 30.178 8.104 29.922 7.488L29.646 6.816H26.454L25.47 9H24.846L28.386 1.08H28.926L31.614 7.488C31.918 8.232 32.334 8.632 32.862 8.688V8.988C32.718 9.028 32.526 9.048 32.286 9.048ZM26.706 6.276H29.418L28.098 3.144L26.706 6.276ZM32.4912 2.484C32.3072 2.044 32.1232 1.732 31.9392 1.548C31.7632 1.364 31.5512 1.256 31.3032 1.224V0.983999L31.8072 0.96C32.3352 0.96 32.7992 1.06 33.1992 1.26C33.5992 1.46 33.9272 1.868 34.1832 2.484L36.0792 6.972L38.6112 1.08H39.2232L35.7672 9.12H35.2872L32.4912 2.484ZM41.2741 9C40.9861 9 40.7661 8.956 40.6141 8.868C40.4621 8.772 40.3541 8.616 40.2901 8.4C40.2261 8.176 40.1941 7.856 40.1941 7.44V1.08H41.7541V7.44C41.7541 7.848 41.8101 8.152 41.9221 8.352C42.0341 8.544 42.2581 8.64 42.5941 8.64H42.7141V9H41.2741ZM44.0306 2.64C44.0306 2.232 43.9746 1.932 43.8626 1.74C43.7506 1.54 43.5266 1.44 43.1906 1.44H43.0706V1.08H46.3106C47.3186 1.08 48.1586 1.22 48.8306 1.5C49.5106 1.78 49.8506 2.34 49.8506 3.18C49.8506 3.548 49.7026 3.896 49.4066 4.224C49.1186 4.544 48.7106 4.772 48.1826 4.908C49.5346 5.044 50.2106 5.676 50.2106 6.804C50.2106 7.636 49.8786 8.212 49.2146 8.532C48.5506 8.844 47.7026 9 46.6706 9H44.0306V2.64ZM46.4906 4.668C47.0106 4.668 47.4186 4.548 47.7146 4.308C48.0186 4.06 48.1706 3.664 48.1706 3.12C48.1706 2.568 47.9906 2.172 47.6306 1.932C47.2786 1.684 46.8386 1.56 46.3106 1.56C46.0946 1.56 45.9266 1.576 45.8066 1.608L45.5906 1.644V4.668H46.4906ZM46.4906 8.52C47.1546 8.52 47.6586 8.376 48.0026 8.088C48.3546 7.8 48.5306 7.392 48.5306 6.864C48.5306 5.76 47.8506 5.208 46.4906 5.208H45.5906V8.4C45.6786 8.432 45.7586 8.452 45.8306 8.46C46.0066 8.5 46.2066 8.52 46.4306 8.52H46.4906ZM51.7533 2.64C51.7533 2.232 51.6973 1.932 51.5853 1.74C51.4733 1.54 51.2493 1.44 50.9133 1.44H50.7933V1.08H56.0853C56.7653 1.08 57.1053 1.4 57.1053 2.04V3.06H56.7453C56.7453 2.564 56.6173 2.2 56.3613 1.968C56.1133 1.736 55.7413 1.62 55.2453 1.62H53.3133V4.62H56.4333V5.16H53.3133V8.46H55.3653C55.8213 8.46 56.2013 8.36 56.5053 8.16C56.8093 7.952 57.0613 7.596 57.2613 7.092L57.5853 7.212L57.2373 8.16C57.1333 8.448 57.0093 8.66 56.8653 8.796C56.7213 8.932 56.4973 9 56.1933 9H51.7533V2.64Z" fill="black"/>
</svg>
