<svg width="28" height="28" viewBox="0 0 28 28" fill="none" xmlns="http://www.w3.org/2000/svg">
<path d="M23.3917 15.3333H4.60833C3.99622 15.3333 3.5 15.8295 3.5 16.4416V16.5583C3.5 17.1704 3.99622 17.6666 4.60833 17.6666H23.3917C24.0038 17.6666 24.5 17.1704 24.5 16.5583V16.4416C24.5 15.8295 24.0038 15.3333 23.3917 15.3333Z" fill="black"/>
<path d="M23.3917 23.6666H4.60833C3.99622 23.6666 3.5 24.1628 3.5 24.775V24.8916C3.5 25.5037 3.99622 26 4.60833 26H23.3917C24.0038 26 24.5 25.5037 24.5 24.8916V24.775C24.5 24.1628 24.0038 23.6666 23.3917 23.6666Z" fill="black"/>
<path d="M23.3917 7H4.60833C3.99622 7 3.5 7.49622 3.5 8.10833V8.225C3.5 8.83712 3.99622 9.33333 4.60833 9.33333H23.3917C24.0038 9.33333 24.5 8.83712 24.5 8.225V8.10833C24.5 7.49622 24.0038 7 23.3917 7Z" fill="black"/>
</svg>
