<svg width="47" height="43" viewBox="0 0 47 43" fill="none" xmlns="http://www.w3.org/2000/svg">
<path d="M22.5526 19.1104L18.7759 24.6076C18.7105 24.7027 18.8314 24.8145 18.9211 24.742L22.2934 22.0165C22.3715 21.9534 22.4842 21.9579 22.5569 22.0271L25.7542 25.066C25.8387 25.1462 25.9735 25.1376 26.0471 25.0474L30.5351 19.539C30.6076 19.45 30.4974 19.3289 30.402 19.3927L26.2992 22.1367C26.2214 22.1887 26.118 22.1798 26.0502 22.1154L22.8552 19.0786C22.766 18.9939 22.6222 19.009 22.5526 19.1104Z" fill="black"/>
<mask id="path-3-outside-1_16_178" maskUnits="userSpaceOnUse" x="12.3005" y="10.9185" width="23.7084" height="22.7972" fill="black">
<rect fill="white" x="12.3005" y="10.9185" width="23.7084" height="22.7972"/>
<path fill-rule="evenodd" clip-rule="evenodd" d="M23.4588 30.4588C28.9616 30.9291 33.7594 27.3689 34.1749 22.5068C34.5905 17.6447 30.4665 13.3219 24.9637 12.8516C19.4609 12.3813 14.6631 15.9415 14.2476 20.8036C13.9872 23.85 15.5089 26.6846 18.0353 28.4926L17.7405 30.0769L19.6935 29.4609C20.8336 29.9939 22.1045 30.3431 23.4588 30.4588Z"/>
</mask>
<path d="M18.0353 28.4926L19.0184 28.6755L19.1348 28.0498L18.6173 27.6794L18.0353 28.4926ZM17.7405 30.0769L16.7574 29.894L16.4527 31.5317L18.0413 31.0306L17.7405 30.0769ZM19.6935 29.4609L20.117 28.555L19.7641 28.39L19.3926 28.5072L19.6935 29.4609ZM33.1785 22.4216C32.8196 26.6211 28.616 29.8959 23.544 29.4624L23.3737 31.4552C29.3072 31.9623 34.6991 28.1167 35.1713 22.5919L33.1785 22.4216ZM24.8785 13.8479C29.9505 14.2814 33.5375 18.2221 33.1785 22.4216L35.1713 22.5919C35.6435 17.0672 30.9824 12.3623 25.0488 11.8552L24.8785 13.8479ZM15.2439 20.8888C15.6029 16.6893 19.8065 13.4145 24.8785 13.8479L25.0488 11.8552C19.1153 11.3481 13.7234 15.1937 13.2512 20.7185L15.2439 20.8888ZM18.6173 27.6794C16.3328 26.0445 15.0181 23.5316 15.2439 20.8888L13.2512 20.7185C12.9563 24.1684 14.6851 27.3247 17.4533 29.3058L18.6173 27.6794ZM18.7236 30.2598L19.0184 28.6755L17.0522 28.3097L16.7574 29.894L18.7236 30.2598ZM19.3926 28.5072L17.4397 29.1232L18.0413 31.0306L19.9943 30.4145L19.3926 28.5072ZM23.544 29.4624C22.3069 29.3567 21.1507 29.0383 20.117 28.555L19.2699 30.3667C20.5166 30.9496 21.902 31.3294 23.3737 31.4552L23.544 29.4624Z" fill="black" mask="url(#path-3-outside-1_16_178)"/>
</svg>
