<svg width="34" height="33" viewBox="0 0 34 33" fill="none" xmlns="http://www.w3.org/2000/svg">
<path d="M20.6193 15.6634C20.7544 15.3373 20.8543 14.9986 20.9177 14.6531C21.0083 14.1598 20.5934 13.75 20.0919 13.75V13.75C19.5904 13.75 19.1964 14.1645 19.0553 14.6458C19.0232 14.7551 18.9853 14.8628 18.9415 14.9684C18.7815 15.3547 18.547 15.7057 18.2513 16.0014C17.9557 16.297 17.6047 16.5316 17.2184 16.6916C16.8321 16.8516 16.4181 16.9339 15.9999 16.9339C15.5818 16.9339 15.1678 16.8516 14.7815 16.6916C14.3952 16.5316 14.0442 16.297 13.7486 16.0014C13.4529 15.7057 13.2184 15.3547 13.0584 14.9684C13.0146 14.8628 12.9767 14.7551 12.9446 14.6458C12.8035 14.1645 12.4095 13.75 11.908 13.75V13.75C11.4065 13.75 10.9916 14.1598 11.0822 14.6531C11.1456 14.9986 11.2455 15.3373 11.3805 15.6634C11.6318 16.27 12.0001 16.8212 12.4644 17.2855C12.9287 17.7498 13.4799 18.1181 14.0865 18.3694C14.6931 18.6207 15.3433 18.75 15.9999 18.75C16.6565 18.75 17.3067 18.6207 17.9134 18.3694C18.52 18.1181 19.0712 17.7498 19.5355 17.2855C19.9998 16.8212 20.3681 16.27 20.6193 15.6634Z" stroke="black"/>
<path d="M20.9999 10C20.9999 9.34339 20.8706 8.69321 20.6193 8.08658C20.3681 7.47995 19.9998 6.92876 19.5355 6.46447C19.0712 6.00017 18.52 5.63188 17.9134 5.3806C17.3067 5.12933 16.6565 5 15.9999 5C15.3433 5 14.6931 5.12933 14.0865 5.3806C13.4799 5.63188 12.9287 6.00017 12.4644 6.46447C12.0001 6.92876 11.6318 7.47996 11.3805 8.08658C11.1293 8.69321 10.9999 9.34339 10.9999 10L12.816 10C12.816 9.58188 12.8984 9.16785 13.0584 8.78156C13.2184 8.39527 13.4529 8.04428 13.7486 7.74862C14.0442 7.45296 14.3952 7.21844 14.7815 7.05843C15.1678 6.89842 15.5818 6.81607 15.9999 6.81607C16.4181 6.81607 16.8321 6.89842 17.2184 7.05843C17.6047 7.21844 17.9557 7.45296 18.2513 7.74862C18.547 8.04428 18.7815 8.39527 18.9415 8.78156C19.1015 9.16785 19.1839 9.58188 19.1839 10H20.9999Z" stroke="black"/>
<path d="M7.17359 11.542C7.21678 11.0237 7.65004 10.625 8.17013 10.625H23.8299C24.35 10.625 24.7832 11.0237 24.8264 11.542L25.639 21.2928C25.8333 23.6249 23.993 25.625 21.6528 25.625H10.3472C8.00704 25.625 6.16668 23.6249 6.36102 21.2928L7.17359 11.542Z" stroke="black"/>
</svg>
